<svg xmlns="http://www.w3.org/2000/svg" xmlns:xlink="http://www.w3.org/1999/xlink" display="block" class="plt-container" width="600.0" height="400.0">
  <style type="text/css">
  .plt-container {
   font-family: Lucida Grande, sans-serif;
   user-select: none;
   -webkit-user-select: none;
   -moz-user-select: none;
   -ms-user-select: none;
}
text {
   text-rendering: optimizeLegibility;
}
#paYMrv8 .plot-title {
   fill: #474747;
   font-family: Lucida Grande, sans-serif;
   font-size: 16.0px;
   font-weight: normal;
   font-style: normal;   
}
#paYMrv8 .plot-subtitle {
   fill: #474747;
   font-family: Lucida Grande, sans-serif;
   font-size: 15.0px;
   font-weight: normal;
   font-style: normal;   
}
#paYMrv8 .plot-caption {
   fill: #474747;
   font-family: Lucida Grande, sans-serif;
   font-size: 13.0px;
   font-weight: normal;
   font-style: normal;   
}
#paYMrv8 .legend-title {
   fill: #474747;
   font-family: Lucida Grande, sans-serif;
   font-size: 15.0px;
   font-weight: normal;
   font-style: normal;   
}
#paYMrv8 .legend-item {
   fill: #474747;
   font-family: Lucida Grande, sans-serif;
   font-size: 13.0px;
   font-weight: normal;
   font-style: normal;   
}
#paYMrv8 .axis-title-x {
   fill: #474747;
   font-family: Lucida Grande, sans-serif;
   font-size: 15.0px;
   font-weight: normal;
   font-style: normal;   
}
#paYMrv8 .axis-text-x {
   fill: #474747;
   font-family: Lucida Grande, sans-serif;
   font-size: 13.0px;
   font-weight: normal;
   font-style: normal;   
}
#dMA7Keg .axis-tooltip-text-x {
   fill: #ffffff;
   font-family: Lucida Grande, sans-serif;
   font-size: 13.0px;
   font-weight: normal;
   font-style: normal;   
}
#paYMrv8 .axis-title-y {
   fill: #474747;
   font-family: Lucida Grande, sans-serif;
   font-size: 15.0px;
   font-weight: normal;
   font-style: normal;   
}
#paYMrv8 .axis-text-y {
   fill: #474747;
   font-family: Lucida Grande, sans-serif;
   font-size: 13.0px;
   font-weight: normal;
   font-style: normal;   
}
#dMA7Keg .axis-tooltip-text-y {
   fill: #ffffff;
   font-family: Lucida Grande, sans-serif;
   font-size: 13.0px;
   font-weight: normal;
   font-style: normal;   
}
#paYMrv8 .facet-strip-text-x {
   fill: #474747;
   font-family: Lucida Grande, sans-serif;
   font-size: 13.0px;
   font-weight: normal;
   font-style: normal;   
}
#paYMrv8 .facet-strip-text-y {
   fill: #474747;
   font-family: Lucida Grande, sans-serif;
   font-size: 13.0px;
   font-weight: normal;
   font-style: normal;   
}
#dMA7Keg .tooltip-text {
   fill: #474747;
   font-family: Lucida Grande, sans-serif;
   font-size: 13.0px;
   font-weight: normal;
   font-style: normal;   
}
#dMA7Keg .tooltip-title {
   fill: #474747;
   font-family: Lucida Grande, sans-serif;
   font-size: 13.0px;
   font-weight: bold;
   font-style: normal;   
}
#dMA7Keg .tooltip-label {
   fill: #474747;
   font-family: Lucida Grande, sans-serif;
   font-size: 13.0px;
   font-weight: bold;
   font-style: normal;   
}

  </style>
  <g id="paYMrv8">
    <path fill-rule="evenodd" fill="rgb(255,255,255)" fill-opacity="1.0" d="M0.0 0.0 L0.0 400.0 L600.0 400.0 L600.0 0.0 Z">
    </path>
    <g transform="translate(29.5 42.5 ) ">
      <g>
        <g transform="translate(29.941816366404606 0.0 ) ">
          <g>
            <line x1="20.829844451434838" y1="0.0" x2="20.829844451434838" y2="328.0" stroke="rgb(233,233,233)" stroke-opacity="1.0" stroke-width="1.0" fill="none">
            </line>
            <line x1="99.43303106061649" y1="0.0" x2="99.43303106061649" y2="328.0" stroke="rgb(233,233,233)" stroke-opacity="1.0" stroke-width="1.0" fill="none">
            </line>
            <line x1="178.03621766979813" y1="0.0" x2="178.03621766979813" y2="328.0" stroke="rgb(233,233,233)" stroke-opacity="1.0" stroke-width="1.0" fill="none">
            </line>
            <line x1="256.63940427897796" y1="0.0" x2="256.63940427897796" y2="328.0" stroke="rgb(233,233,233)" stroke-opacity="1.0" stroke-width="1.0" fill="none">
            </line>
            <line x1="335.2425908881596" y1="0.0" x2="335.2425908881596" y2="328.0" stroke="rgb(233,233,233)" stroke-opacity="1.0" stroke-width="1.0" fill="none">
            </line>
            <line x1="413.84577749734126" y1="0.0" x2="413.84577749734126" y2="328.0" stroke="rgb(233,233,233)" stroke-opacity="1.0" stroke-width="1.0" fill="none">
            </line>
          </g>
        </g>
        <g transform="translate(29.941816366404606 0.0 ) ">
          <g>
            <line x1="0.0" y1="328.0" x2="458.2565779315298" y2="328.0" stroke="rgb(233,233,233)" stroke-opacity="1.0" stroke-width="1.0" fill="none">
            </line>
            <line x1="0.0" y1="265.5238095238095" x2="458.2565779315298" y2="265.5238095238095" stroke="rgb(233,233,233)" stroke-opacity="1.0" stroke-width="1.0" fill="none">
            </line>
            <line x1="0.0" y1="203.04761904761904" x2="458.2565779315298" y2="203.04761904761904" stroke="rgb(233,233,233)" stroke-opacity="1.0" stroke-width="1.0" fill="none">
            </line>
            <line x1="0.0" y1="140.57142857142858" x2="458.2565779315298" y2="140.57142857142858" stroke="rgb(233,233,233)" stroke-opacity="1.0" stroke-width="1.0" fill="none">
            </line>
            <line x1="0.0" y1="78.0952380952381" x2="458.2565779315298" y2="78.0952380952381" stroke="rgb(233,233,233)" stroke-opacity="1.0" stroke-width="1.0" fill="none">
            </line>
            <line x1="0.0" y1="15.619047619047592" x2="458.2565779315298" y2="15.619047619047592" stroke="rgb(233,233,233)" stroke-opacity="1.0" stroke-width="1.0" fill="none">
            </line>
          </g>
        </g>
        <g transform="translate(29.941816366404606 328.0 ) ">
          <g transform="translate(20.829844451434838 0.0 ) ">
            <line stroke-width="1.0" stroke="rgb(71,71,71)" stroke-opacity="1.0" x2="0.0" y2="4.0">
            </line>
            <g transform="translate(0.0 7.0 ) ">
              <text class="axis-text-x" text-anchor="middle" dy="0.7em">
                <tspan>1970</tspan>
              </text>
            </g>
          </g>
          <g transform="translate(99.43303106061649 0.0 ) ">
            <line stroke-width="1.0" stroke="rgb(71,71,71)" stroke-opacity="1.0" x2="0.0" y2="4.0">
            </line>
            <g transform="translate(0.0 7.0 ) ">
              <text class="axis-text-x" text-anchor="middle" dy="0.7em">
                <tspan>1980</tspan>
              </text>
            </g>
          </g>
          <g transform="translate(178.03621766979813 0.0 ) ">
            <line stroke-width="1.0" stroke="rgb(71,71,71)" stroke-opacity="1.0" x2="0.0" y2="4.0">
            </line>
            <g transform="translate(0.0 7.0 ) ">
              <text class="axis-text-x" text-anchor="middle" dy="0.7em">
                <tspan>1990</tspan>
              </text>
            </g>
          </g>
          <g transform="translate(256.63940427897796 0.0 ) ">
            <line stroke-width="1.0" stroke="rgb(71,71,71)" stroke-opacity="1.0" x2="0.0" y2="4.0">
            </line>
            <g transform="translate(0.0 7.0 ) ">
              <text class="axis-text-x" text-anchor="middle" dy="0.7em">
                <tspan>2000</tspan>
              </text>
            </g>
          </g>
          <g transform="translate(335.2425908881596 0.0 ) ">
            <line stroke-width="1.0" stroke="rgb(71,71,71)" stroke-opacity="1.0" x2="0.0" y2="4.0">
            </line>
            <g transform="translate(0.0 7.0 ) ">
              <text class="axis-text-x" text-anchor="middle" dy="0.7em">
                <tspan>2010</tspan>
              </text>
            </g>
          </g>
          <g transform="translate(413.84577749734126 0.0 ) ">
            <line stroke-width="1.0" stroke="rgb(71,71,71)" stroke-opacity="1.0" x2="0.0" y2="4.0">
            </line>
            <g transform="translate(0.0 7.0 ) ">
              <text class="axis-text-x" text-anchor="middle" dy="0.7em">
                <tspan>2020</tspan>
              </text>
            </g>
          </g>
          <line x1="0.0" y1="0.0" x2="458.2565779315298" y2="0.0" stroke-width="1.0" stroke="rgb(71,71,71)" stroke-opacity="1.0">
          </line>
        </g>
        <g transform="translate(29.941816366404606 0.0 ) ">
          <g transform="translate(0.0 328.0 ) ">
            <g transform="translate(-3.0 0.0 ) ">
              <text class="axis-text-y" text-anchor="end" dy="0.35em">
                <tspan>0</tspan>
              </text>
            </g>
          </g>
          <g transform="translate(0.0 265.5238095238095 ) ">
            <g transform="translate(-3.0 0.0 ) ">
              <text class="axis-text-y" text-anchor="end" dy="0.35em">
                <tspan>20</tspan>
              </text>
            </g>
          </g>
          <g transform="translate(0.0 203.04761904761904 ) ">
            <g transform="translate(-3.0 0.0 ) ">
              <text class="axis-text-y" text-anchor="end" dy="0.35em">
                <tspan>40</tspan>
              </text>
            </g>
          </g>
          <g transform="translate(0.0 140.57142857142858 ) ">
            <g transform="translate(-3.0 0.0 ) ">
              <text class="axis-text-y" text-anchor="end" dy="0.35em">
                <tspan>60</tspan>
              </text>
            </g>
          </g>
          <g transform="translate(0.0 78.0952380952381 ) ">
            <g transform="translate(-3.0 0.0 ) ">
              <text class="axis-text-y" text-anchor="end" dy="0.35em">
                <tspan>80</tspan>
              </text>
            </g>
          </g>
          <g transform="translate(0.0 15.619047619047592 ) ">
            <g transform="translate(-3.0 0.0 ) ">
              <text class="axis-text-y" text-anchor="end" dy="0.35em">
                <tspan>100</tspan>
              </text>
            </g>
          </g>
        </g>
      </g>
      <g clip-path="url(#c10YRxK)" clip-bounds-jfx="[rect (29.941816366404606, 0.0), (458.2565779315298, 328.0)]">
        <g transform="translate(29.941816366404606 0.0 ) ">
          <g>
            <g>
              <g>
                <path d="M20.829844451434838 15.619047619047592 L20.829844451434838 15.619047619047592 L28.69016311235282 15.619047619047592 L36.5504817732708 15.619047619047592 L44.410800434188786 15.619047619047592 L52.27111909510677 15.619047619047592 L60.13143775602475 15.619047619047592 L67.99175641694274 15.619047619047592 L75.85207507786072 15.619047619047592 L83.7123937387787 15.619047619047592 L91.57271239969668 15.619047619047592 L99.43303106061649 15.619047619047592 L107.29334972153447 15.619047619047592 L115.15366838245245 15.619047619047592 L123.01398704337043 15.619047619047592 L130.87430570428842 15.619047619047592 L138.7346243652064 15.619047619047592 L146.59494302612438 15.619047619047592 L154.45526168704237 15.619047619047592 L162.31558034796035 15.619047619047592 L170.17589900887833 15.619047619047592 L178.03621766979813 15.619047619047592 L185.89653633071612 15.619047619047592 L193.7568549916341 15.619047619047592 L201.61717365255208 15.619047619047592 L209.47749231347007 15.619047619047592 L217.33781097438805 15.619047619047592 L225.19812963530603 15.619047619047592 L233.05844829622401 15.619047619047592 L240.918766957142 15.619047619047592 L248.77908561805998 15.619047619047592 L256.63940427897796 15.619047619047592 L264.49972293989777 15.619047619047592 L272.36004160081575 15.619047619047592 L280.22036026173373 15.619047619047592 L288.0806789226517 15.619047619047592 L295.9409975835697 15.619047619047592 L303.8013162444877 15.619047619047592 L311.66163490540566 15.619047619047592 L319.52195356632365 15.619047619047592 L327.38227222724163 15.619047619047592 L335.2425908881596 15.619047619047592 L343.1029095490794 15.619047619047592 L350.9632282099974 15.619047619047592 L358.8235468709154 15.619047619047592 L366.68386553183336 15.619047619047592 L374.54418419275135 15.619047619047592 L382.4045028536693 15.619047619047592 L390.2648215145873 15.619047619047592 L398.1251401755053 15.619047619047592 L405.9854588364233 15.619047619047592 L413.84577749734126 15.619047619047592 L421.70609615825924 15.619047619047592 L429.56641481917904 15.619047619047592 L437.426733480097 15.619047619047592 L437.426733480097 328.0 L429.56641481917904 328.0 L421.70609615825924 328.0 L413.84577749734126 328.0 L405.9854588364233 328.0 L398.1251401755053 328.0 L390.2648215145873 328.0 L382.4045028536693 328.0 L374.54418419275135 328.0 L366.68386553183336 328.0 L358.8235468709154 328.0 L350.9632282099974 328.0 L343.1029095490794 328.0 L335.2425908881596 328.0 L327.38227222724163 328.0 L319.52195356632365 328.0 L311.66163490540566 328.0 L303.8013162444877 328.0 L295.9409975835697 328.0 L288.0806789226517 328.0 L280.22036026173373 328.0 L272.36004160081575 328.0 L264.49972293989777 328.0 L256.63940427897796 328.0 L248.77908561805998 328.0 L240.918766957142 328.0 L233.05844829622401 328.0 L225.19812963530603 328.0 L217.33781097438805 328.0 L209.47749231347007 328.0 L201.61717365255208 328.0 L193.7568549916341 328.0 L185.89653633071612 328.0 L178.03621766979813 328.0 L170.17589900887833 328.0 L162.31558034796035 328.0 L154.45526168704237 328.0 L146.59494302612438 328.0 L138.7346243652064 328.0 L130.87430570428842 328.0 L123.01398704337043 328.0 L115.15366838245245 328.0 L107.29334972153447 328.0 L99.43303106061649 328.0 L91.57271239969668 328.0 L83.7123937387787 328.0 L75.85207507786072 328.0 L67.99175641694274 328.0 L60.13143775602475 328.0 L52.27111909510677 328.0 L44.410800434188786 328.0 L36.5504817732708 328.0 L28.69016311235282 328.0 L20.829844451434838 328.0 Z" fill="rgb(255,238,192)" stroke-width="1.0" fill-opacity="1.0">
                </path>
              </g>
              <g>
                <path d="M20.829844451434838 15.619047619047592 L20.829844451434838 15.619047619047592 L28.69016311235282 15.619047619047592 L36.5504817732708 15.619047619047592 L44.410800434188786 15.619047619047592 L52.27111909510677 15.619047619047592 L60.13143775602475 15.619047619047592 L67.99175641694274 15.619047619047592 L75.85207507786072 15.619047619047592 L83.7123937387787 15.619047619047592 L91.57271239969668 15.619047619047592 L99.43303106061649 15.619047619047592 L107.29334972153447 15.619047619047592 L115.15366838245245 15.619047619047592 L123.01398704337043 15.619047619047592 L130.87430570428842 15.619047619047592 L138.7346243652064 15.619047619047592 L146.59494302612438 15.619047619047592 L154.45526168704237 15.619047619047592 L162.31558034796035 15.619047619047592 L170.17589900887833 15.619047619047592 L178.03621766979813 15.619047619047592 L185.89653633071612 15.619047619047592 L193.7568549916341 15.619047619047592 L201.61717365255208 15.619047619047592 L209.47749231347007 15.619047619047592 L217.33781097438805 15.619047619047592 L225.19812963530603 15.619047619047592 L233.05844829622401 15.619047619047592 L240.918766957142 15.619047619047592 L248.77908561805998 15.619047619047592 L256.63940427897796 15.619047619047592 L264.49972293989777 15.619047619047592 L272.36004160081575 15.619047619047592 L280.22036026173373 15.619047619047592 L288.0806789226517 15.619047619047592 L295.9409975835697 15.619047619047592 L303.8013162444877 15.619047619047592 L311.66163490540566 15.619047619047592 L319.52195356632365 15.619047619047592 L327.38227222724163 15.619047619047592 L335.2425908881596 15.619047619047592 L343.1029095490794 15.619047619047592 L350.9632282099974 15.619047619047592 L358.8235468709154 15.619047619047592 L366.68386553183336 15.619047619047592 L374.54418419275135 15.619047619047592 L382.4045028536693 15.619047619047592 L390.2648215145873 15.619047619047592 L398.1251401755053 15.619047619047592 L405.9854588364233 15.619047619047592 L413.84577749734126 15.619047619047592 L421.70609615825924 15.619047619047592 L429.56641481917904 15.619047619047592 L437.426733480097 15.619047619047592 " fill="none" stroke-width="1.6500000000000001" stroke="rgb(71,71,71)" stroke-opacity="1.0">
                </path>
              </g>
              <g>
                <path d="M20.829844451434838 328.0 L20.829844451434838 328.0 L28.69016311235282 328.0 L36.5504817732708 328.0 L44.410800434188786 328.0 L52.27111909510677 328.0 L60.13143775602475 328.0 L67.99175641694274 324.3676633444075 L75.85207507786072 297.4230284706475 L83.7123937387787 328.0 L91.57271239969668 317.9586924157598 L99.43303106061649 308.9349977727801 L107.29334972153447 304.16407636079765 L115.15366838245245 293.1571384493322 L123.01398704337043 288.1042924648075 L130.87430570428842 293.8143413007226 L138.7346243652064 292.12052882356886 L146.59494302612438 264.5190754664439 L154.45526168704237 275.93650793650795 L162.31558034796035 279.6981132075472 L170.17589900887833 288.47200602560883 L178.03621766979813 279.63212242775427 L185.89653633071612 280.50573900759315 L193.7568549916341 261.4930875576037 L201.61717365255208 271.5787707153346 L209.47749231347007 269.2892262376798 L217.33781097438805 267.6689147762109 L225.19812963530603 263.74843739931697 L233.05844829622401 257.543036149371 L240.918766957142 271.0002555583951 L248.77908561805998 264.91903865606474 L256.63940427897796 270.364333355492 L264.49972293989777 268.5664442771475 L272.36004160081575 269.491243810853 L280.22036026173373 275.9528749569617 L288.0806789226517 266.3538561244329 L295.9409975835697 269.11963964859115 L303.8013162444877 270.25815174317233 L311.66163490540566 268.96910699650425 L319.52195356632365 274.8608876406277 L327.38227222724163 268.46426014929955 L335.2425908881596 270.3895000965065 L343.1029095490794 268.7774438662073 L350.9632282099974 265.24199464657477 L358.8235468709154 255.88045930903075 L366.68386553183336 242.6854350549377 L374.54418419275135 235.24425309849966 L382.4045028536693 230.0144344035794 L390.2648215145873 222.4998435209435 L398.1251401755053 227.7861176783304 L405.9854588364233 227.8255963763104 L413.84577749734126 230.8526890101325 L421.70609615825924 230.52403684529014 L429.56641481917904 231.14382927607033 L437.426733480097 231.36804295686744 L437.426733480097 328.0 L429.56641481917904 328.0 L421.70609615825924 328.0 L413.84577749734126 328.0 L405.9854588364233 328.0 L398.1251401755053 328.0 L390.2648215145873 328.0 L382.4045028536693 328.0 L374.54418419275135 328.0 L366.68386553183336 328.0 L358.8235468709154 328.0 L350.9632282099974 328.0 L343.1029095490794 328.0 L335.2425908881596 328.0 L327.38227222724163 328.0 L319.52195356632365 328.0 L311.66163490540566 328.0 L303.8013162444877 328.0 L295.9409975835697 328.0 L288.0806789226517 328.0 L280.22036026173373 328.0 L272.36004160081575 328.0 L264.49972293989777 328.0 L256.63940427897796 328.0 L248.77908561805998 328.0 L240.918766957142 328.0 L233.05844829622401 328.0 L225.19812963530603 328.0 L217.33781097438805 328.0 L209.47749231347007 328.0 L201.61717365255208 328.0 L193.7568549916341 328.0 L185.89653633071612 328.0 L178.03621766979813 328.0 L170.17589900887833 328.0 L162.31558034796035 328.0 L154.45526168704237 328.0 L146.59494302612438 328.0 L138.7346243652064 328.0 L130.87430570428842 328.0 L123.01398704337043 328.0 L115.15366838245245 328.0 L107.29334972153447 328.0 L99.43303106061649 328.0 L91.57271239969668 328.0 L83.7123937387787 328.0 L75.85207507786072 328.0 L67.99175641694274 328.0 L60.13143775602475 328.0 L52.27111909510677 328.0 L44.410800434188786 328.0 L36.5504817732708 328.0 L28.69016311235282 328.0 L20.829844451434838 328.0 Z" fill="rgb(254,200,47)" stroke-width="1.0" fill-opacity="1.0">
                </path>
              </g>
              <g>
                <path d="M20.829844451434838 328.0 L20.829844451434838 328.0 L28.69016311235282 328.0 L36.5504817732708 328.0 L44.410800434188786 328.0 L52.27111909510677 328.0 L60.13143775602475 328.0 L67.99175641694274 324.3676633444075 L75.85207507786072 297.4230284706475 L83.7123937387787 328.0 L91.57271239969668 317.9586924157598 L99.43303106061649 308.9349977727801 L107.29334972153447 304.16407636079765 L115.15366838245245 293.1571384493322 L123.01398704337043 288.1042924648075 L130.87430570428842 293.8143413007226 L138.7346243652064 292.12052882356886 L146.59494302612438 264.5190754664439 L154.45526168704237 275.93650793650795 L162.31558034796035 279.6981132075472 L170.17589900887833 288.47200602560883 L178.03621766979813 279.63212242775427 L185.89653633071612 280.50573900759315 L193.7568549916341 261.4930875576037 L201.61717365255208 271.5787707153346 L209.47749231347007 269.2892262376798 L217.33781097438805 267.6689147762109 L225.19812963530603 263.74843739931697 L233.05844829622401 257.543036149371 L240.918766957142 271.0002555583951 L248.77908561805998 264.91903865606474 L256.63940427897796 270.364333355492 L264.49972293989777 268.5664442771475 L272.36004160081575 269.491243810853 L280.22036026173373 275.9528749569617 L288.0806789226517 266.3538561244329 L295.9409975835697 269.11963964859115 L303.8013162444877 270.25815174317233 L311.66163490540566 268.96910699650425 L319.52195356632365 274.8608876406277 L327.38227222724163 268.46426014929955 L335.2425908881596 270.3895000965065 L343.1029095490794 268.7774438662073 L350.9632282099974 265.24199464657477 L358.8235468709154 255.88045930903075 L366.68386553183336 242.6854350549377 L374.54418419275135 235.24425309849966 L382.4045028536693 230.0144344035794 L390.2648215145873 222.4998435209435 L398.1251401755053 227.7861176783304 L405.9854588364233 227.8255963763104 L413.84577749734126 230.8526890101325 L421.70609615825924 230.52403684529014 L429.56641481917904 231.14382927607033 L437.426733480097 231.36804295686744 " fill="none" stroke-width="1.6500000000000001" stroke="rgb(71,71,71)" stroke-opacity="1.0">
                </path>
              </g>
            </g>
          </g>
        </g>
        <defs>
          <clipPath id="c10YRxK">
            <rect x="29.941816366404606" y="0.0" width="458.2565779315298" height="328.0">
            </rect>
          </clipPath>
        </defs>
      </g>
      <g>
      </g>
    </g>
    <g transform="translate(288.57010533216953 22.8 ) ">
      <text class="plot-title" y="0.0" text-anchor="middle">
        <tspan>First Powerlifitng Meet Participation by Gender</tspan>
      </text>
    </g>
    <g transform="translate(16.0 206.5 ) rotate(-90.0 ) ">
      <text class="axis-title-y" y="0.0" text-anchor="middle">
        <tspan>Percentage of Lifters</tspan>
      </text>
    </g>
    <g transform="translate(524.1983942979344 162.25 ) ">
      <rect x="5.0" y="5.0" height="78.5" width="65.80160570206557" stroke="rgb(71,71,71)" stroke-opacity="1.0" stroke-width="0.0" fill="rgb(255,255,255)" fill-opacity="1.0">
      </rect>
      <g transform="translate(10.0 10.0 ) ">
        <g transform="translate(0.0 12.0 ) ">
          <text class="legend-title" y="0.0">
            <tspan>Gender</tspan>
          </text>
        </g>
        <g transform="translate(0.0 22.5 ) ">
          <g transform="">
            <g>
              <rect x="0.0" y="0.0" height="23.0" width="23.0" stroke-width="0.0" fill="rgb(255,255,255)" fill-opacity="1.0">
              </rect>
              <g transform="translate(1.0 1.0 ) ">
                <g>
                  <rect x="0.0" y="0.0" height="21.0" width="21.0" stroke="rgb(71,71,71)" stroke-opacity="1.0" fill="rgb(255,238,192)" fill-opacity="1.0" stroke-width="1.5">
                  </rect>
                </g>
              </g>
              <rect x="0.0" y="0.0" height="23.0" width="23.0" stroke="rgb(255,255,255)" stroke-opacity="1.0" stroke-width="1.0" fill-opacity="0.0">
              </rect>
            </g>
            <g transform="translate(26.9903027277341 16.05 ) ">
              <text class="legend-item" y="0.0">
                <tspan>M</tspan>
              </text>
            </g>
          </g>
          <g transform="translate(0.0 23.0 ) ">
            <g>
              <rect x="0.0" y="0.0" height="23.0" width="23.0" stroke-width="0.0" fill="rgb(255,255,255)" fill-opacity="1.0">
              </rect>
              <g transform="translate(1.0 1.0 ) ">
                <g>
                  <rect x="0.0" y="0.0" height="21.0" width="21.0" stroke="rgb(71,71,71)" stroke-opacity="1.0" fill="rgb(254,200,47)" fill-opacity="1.0" stroke-width="1.5">
                  </rect>
                </g>
              </g>
              <rect x="0.0" y="0.0" height="23.0" width="23.0" stroke="rgb(255,255,255)" stroke-opacity="1.0" stroke-width="1.0" fill-opacity="0.0">
              </rect>
            </g>
            <g transform="translate(26.9903027277341 16.05 ) ">
              <text class="legend-item" y="0.0">
                <tspan>F</tspan>
              </text>
            </g>
          </g>
        </g>
      </g>
    </g>
    <path fill="rgb(0,0,0)" fill-opacity="0.0" stroke="rgb(71,71,71)" stroke-opacity="1.0" stroke-width="0.0" d="M0.0 0.0 L0.0 400.0 L600.0 400.0 L600.0 0.0 Z">
    </path>
  </g>
  <g id="dMA7Keg">
  </g>
</svg>